<svg width="32" height="32" viewBox="0 0 32 32" fill="none" xmlns="http://www.w3.org/2000/svg">
<path d="M16.844 15.9998L21.825 11.0273C22.0583 10.7948 22.0583 10.4188 21.825 10.1863C21.5917 9.9547 21.2139 9.9547 20.9815 10.1863L16.0038 15.1563L11.0305 10.1743C10.7989 9.94188 10.4228 9.94188 10.1904 10.1743C9.95791 10.4077 9.95791 10.7854 10.1904 11.0187L15.1595 15.9964L10.175 20.9732C9.94167 21.2056 9.94167 21.5817 10.175 21.8133C10.4074 22.0457 10.7852 22.0457 11.0185 21.8133L16.0004 16.8399L20.9772 21.8252C21.2088 22.0585 21.5849 22.0585 21.8173 21.8252C22.0489 21.5919 22.0489 21.2142 21.8173 20.9817L16.844 15.9998Z" fill="black"/>
</svg>
