<svg width="24" height="23" viewBox="0 0 24 23" fill="none" xmlns="http://www.w3.org/2000/svg">
<g clip-path="url(#clip0_3_1812)">
<path fill-rule="evenodd" clip-rule="evenodd" d="M5.29394 3.25688C5.28311 3.31584 5.27745 3.37661 5.27745 3.43871V6.89325C5.27745 7.44554 5.72516 7.89325 6.27745 7.89325H17.9309C18.4831 7.89325 18.9309 7.44553 18.9309 6.89325V3.43871C18.9309 3.37661 18.9252 3.31584 18.9144 3.25688H21C21.5523 3.25688 22 3.7046 22 4.25688V23.2569C22 23.8092 21.5523 24.2569 21 24.2569H3C2.44772 24.2569 2 23.8092 2 23.2569V4.25688C2 3.7046 2.44772 3.25688 3 3.25688H5.29394ZM6.4141 12.166C6.4141 11.6137 6.86182 11.166 7.4141 11.166H16.7919C17.3442 11.166 17.7919 11.6137 17.7919 12.166V12.3478C17.7919 12.9001 17.3442 13.3478 16.7919 13.3478H7.4141C6.86182 13.3478 6.4141 12.9001 6.4141 12.3478V12.166ZM7.4141 15.5296C6.86182 15.5296 6.4141 15.9773 6.4141 16.5296V16.7114C6.4141 17.2637 6.86182 17.7114 7.4141 17.7114H13.3786C13.9309 17.7114 14.3786 17.2637 14.3786 16.7114V16.5296C14.3786 15.9773 13.9309 15.5296 13.3786 15.5296H7.4141Z" fill="#657694"/>
<rect x="7.55078" y="0.256882" width="9.10227" height="5.45455" rx="1" fill="#04BA71"/>
</g>
<defs>
<clipPath id="clip0_3_1812">
<rect width="24" height="21.7982" fill="white" transform="translate(0 0.256882)"/>
</clipPath>
</defs>
</svg>
